<?xml version="1.0" encoding="UTF-8" standalone="no"?>
<svg
   xmlns:dc="http://purl.org/dc/elements/1.1/"
   xmlns:cc="http://creativecommons.org/ns#"
   xmlns:rdf="http://www.w3.org/1999/02/22-rdf-syntax-ns#"
   xmlns:svg="http://www.w3.org/2000/svg"
   xmlns="http://www.w3.org/2000/svg"
   xmlns:sodipodi="http://sodipodi.sourceforge.net/DTD/sodipodi-0.dtd"
   xmlns:inkscape="http://www.inkscape.org/namespaces/inkscape"
   inkscape:version="1.0 (4035a4f, 2020-05-01)"
   sodipodi:docname="storage-modern.svg"
   id="svg388"
   version="1.1"
   viewBox="0 0 425.063 170.079"
   height="60mm"
   width="149.953mm">
  <metadata
     id="metadata392">
    <rdf:RDF>
      <cc:Work
         rdf:about="">
        <dc:format>image/svg+xml</dc:format>
        <dc:type
           rdf:resource="http://purl.org/dc/dcmitype/StillImage" />
        <dc:title></dc:title>
        <dc:subject>
          <rdf:Bag>
            <rdf:li>storage-modern</rdf:li>
            <rdf:li>lvm-build</rdf:li>
          </rdf:Bag>
        </dc:subject>
      </cc:Work>
    </rdf:RDF>
  </metadata>
  <sodipodi:namedview
     inkscape:current-layer="svg388"
     inkscape:window-maximized="0"
     inkscape:window-y="25"
     inkscape:window-x="0"
     inkscape:cy="113.38583"
     inkscape:cx="283.37575"
     inkscape:zoom="1.9355926"
     showgrid="false"
     id="namedview390"
     inkscape:window-height="480"
     inkscape:window-width="709"
     inkscape:pageshadow="2"
     inkscape:pageopacity="0"
     guidetolerance="10"
     gridtolerance="10"
     objecttolerance="10"
     borderopacity="1"
     bordercolor="#666666"
     pagecolor="#ffffff" />
  <defs
     id="defs12">
    <style
       id="style10">
      .cls-1 {
        fill: #99c2eb;
      }

      .cls-2 {
        fill: #161616;
      }

      .cls-3 {
        fill: #f0f0f0;
      }

      .cls-4 {
        fill: none;
        stroke: #161616;
        stroke-miterlimit: 10;
      }

      .cls-5 {
        fill: #fff;
      }

      .cls-6 {
        fill: #35a335;
      }

      .cls-7 {
        fill: #5c5c5c;
      }

      .cls-8 {
        fill: #8c77d1;
      }

      .cls-9 {
        fill: #06c;
      }

      .cls-10 {
        fill: #faaa4f;
      }
    </style>
  </defs>
  <g
     data-name="Layer 1"
     id="Layer_1">
    <rect
       id="rect14"
       height="28.346"
       width="198.334"
       y="85.039"
       x="226.706"
       class="cls-1" />
    <g
       id="g26">
      <path
         id="path16"
         transform="translate(-80.127 -20.88)"
         d="M392.282,116.158h3.128a2.17,2.17,0,1,1,0,4.326h-1.928v2.67h-1.2Zm2.939,3.347a1.177,1.177,0,1,0,.01-2.338h-1.749v2.338Z"
         class="cls-2" />
      <path
         id="path18"
         transform="translate(-80.127 -20.88)"
         d="M398.7,120.654a2.515,2.515,0,1,1,2.519,2.589A2.494,2.494,0,0,1,398.7,120.654Zm3.918,0a1.42,1.42,0,1,0-1.4,1.63A1.487,1.487,0,0,0,402.62,120.654Z"
         class="cls-2" />
      <path
         id="path20"
         transform="translate(-80.127 -20.88)"
         d="M404.672,120.654a2.515,2.515,0,1,1,2.519,2.589A2.494,2.494,0,0,1,404.672,120.654Zm3.918,0a1.42,1.42,0,1,0-1.4,1.63A1.487,1.487,0,0,0,408.59,120.654Z"
         class="cls-2" />
      <path
         id="path22"
         transform="translate(-80.127 -20.88)"
         d="M410.872,115.988l1.129-.2v7.368h-1.129Z"
         class="cls-2" />
      <path
         id="path24"
         transform="translate(-80.127 -20.88)"
         d="M415.452,122.363l2.869-3a1.855,1.855,0,0,0,.679-1.338,1.137,1.137,0,0,0-1.269-1.02,2.506,2.506,0,0,0-1.82.85l-.619-.75a3.564,3.564,0,0,1,2.459-1.061c1.369,0,2.309.781,2.309,1.92a2.655,2.655,0,0,1-.989,1.959l-2.23,2.3,3.349-.01v.94h-4.738Z"
         class="cls-2" />
    </g>
    <g
       id="g48">
      <rect
         id="rect28"
         height="28.346"
         width="56.693"
         y="141.732"
         x="226.705"
         class="cls-3" />
      <g
         id="g46">
        <path
           id="path30"
           transform="translate(-80.127 -20.88)"
           d="M316.586,172.56h1.1l-4.008,9.085h-1.09Z"
           class="cls-2" />
        <path
           id="path32"
           transform="translate(-80.127 -20.88)"
           d="M318.528,177.057a2.425,2.425,0,0,1,2.338-2.548,1.918,1.918,0,0,1,1.459.649V172.39l1.129-.2v7.366h-1.119V178.9a1.953,1.953,0,0,1-1.549.709A2.4,2.4,0,0,1,318.528,177.057Zm3.8,1.05V176a1.552,1.552,0,0,0-1.189-.54,1.6,1.6,0,0,0,0,3.2A1.474,1.474,0,0,0,322.325,178.107Z"
           class="cls-2" />
        <path
           id="path34"
           transform="translate(-80.127 -20.88)"
           d="M324.627,177.057a2.472,2.472,0,0,1,2.439-2.588,2.406,2.406,0,0,1,2.369,2.588v.27h-3.7a1.533,1.533,0,0,0,1.5,1.4,1.67,1.67,0,0,0,1.189-.47l.74.669a2.9,2.9,0,0,1-1.979.73A2.542,2.542,0,0,1,324.627,177.057Zm3.738-.43a1.362,1.362,0,0,0-1.309-1.239,1.345,1.345,0,0,0-1.309,1.239Z"
           class="cls-2" />
        <path
           id="path36"
           transform="translate(-80.127 -20.88)"
           d="M330,174.549h1.23l1.4,3.638,1.39-3.638H335.2l-2.059,5.007h-1.1Z"
           class="cls-2" />
        <path
           id="path38"
           transform="translate(-80.127 -20.88)"
           d="M338.806,172.56h1.1l-4.007,9.085h-1.09Z"
           class="cls-2" />
        <path
           id="path40"
           transform="translate(-80.127 -20.88)"
           d="M340.528,178.976l.529-.749a2.915,2.915,0,0,0,1.609.569c.6,0,1.009-.279,1.009-.679,0-.31-.209-.47-.7-.57l-.88-.15c-.98-.18-1.449-.629-1.449-1.379,0-.94.769-1.549,1.939-1.549a3.6,3.6,0,0,1,1.969.6l-.529.749a2.722,2.722,0,0,0-1.51-.48c-.52,0-.86.22-.86.58,0,.32.18.459.7.55l.888.17c1,.18,1.48.64,1.48,1.389a1.838,1.838,0,0,1-2.049,1.629A3.346,3.346,0,0,1,340.528,178.976Z"
           class="cls-2" />
        <path
           id="path42"
           transform="translate(-80.127 -20.88)"
           d="M345.537,177.057a2.426,2.426,0,0,1,2.339-2.548,1.918,1.918,0,0,1,1.459.649V172.39l1.129-.2v7.366h-1.119V178.9a1.953,1.953,0,0,1-1.549.709A2.4,2.4,0,0,1,345.537,177.057Zm3.8,1.05V176a1.554,1.554,0,0,0-1.189-.54,1.6,1.6,0,0,0,0,3.2A1.474,1.474,0,0,0,349.335,178.107Z"
           class="cls-2" />
        <path
           id="path44"
           transform="translate(-80.127 -20.88)"
           d="M351.637,177.057a2.425,2.425,0,0,1,2.339-2.548,1.918,1.918,0,0,1,1.459.649V172.39l1.13-.2v7.366h-1.119V178.9a1.958,1.958,0,0,1-1.55.709A2.4,2.4,0,0,1,351.637,177.057Zm3.8,1.05V176a1.553,1.553,0,0,0-1.19-.54,1.6,1.6,0,0,0,0,3.2A1.472,1.472,0,0,0,355.435,178.107Z"
           class="cls-2" />
      </g>
    </g>
    <g
       id="g70">
      <rect
         id="rect50"
         height="28.346"
         width="56.693"
         y="141.732"
         x="297.526"
         class="cls-3" />
      <g
         id="g68">
        <path
           id="path52"
           transform="translate(-80.127 -20.88)"
           d="M387.593,172.56h1.1l-4.008,9.085H383.6Z"
           class="cls-2" />
        <path
           id="path54"
           transform="translate(-80.127 -20.88)"
           d="M389.534,177.057a2.425,2.425,0,0,1,2.338-2.548,1.915,1.915,0,0,1,1.459.649V172.39l1.13-.2v7.366h-1.119V178.9a1.957,1.957,0,0,1-1.55.709A2.4,2.4,0,0,1,389.534,177.057Zm3.8,1.05V176a1.549,1.549,0,0,0-1.189-.54,1.6,1.6,0,0,0,0,3.2A1.471,1.471,0,0,0,393.331,178.107Z"
           class="cls-2" />
        <path
           id="path56"
           transform="translate(-80.127 -20.88)"
           d="M395.634,177.057a2.472,2.472,0,0,1,2.438-2.588,2.406,2.406,0,0,1,2.37,2.588v.27h-3.7a1.533,1.533,0,0,0,1.5,1.4,1.673,1.673,0,0,0,1.19-.47l.739.669a2.893,2.893,0,0,1-1.978.73A2.541,2.541,0,0,1,395.634,177.057Zm3.738-.43a1.363,1.363,0,0,0-1.309-1.239,1.347,1.347,0,0,0-1.31,1.239Z"
           class="cls-2" />
        <path
           id="path58"
           transform="translate(-80.127 -20.88)"
           d="M401,174.549h1.23l1.4,3.638,1.391-3.638H406.2l-2.059,5.007h-1.1Z"
           class="cls-2" />
        <path
           id="path60"
           transform="translate(-80.127 -20.88)"
           d="M409.812,172.56h1.1l-4.007,9.085h-1.089Z"
           class="cls-2" />
        <path
           id="path62"
           transform="translate(-80.127 -20.88)"
           d="M411.534,178.976l.53-.749a2.912,2.912,0,0,0,1.609.569c.6,0,1.009-.279,1.009-.679,0-.31-.21-.47-.7-.57l-.88-.15c-.98-.18-1.449-.629-1.449-1.379,0-.94.769-1.549,1.939-1.549a3.6,3.6,0,0,1,1.969.6l-.53.749a2.719,2.719,0,0,0-1.509-.48c-.52,0-.86.22-.86.58,0,.32.18.459.7.55l.889.17c1,.18,1.48.64,1.48,1.389a1.838,1.838,0,0,1-2.049,1.629A3.349,3.349,0,0,1,411.534,178.976Z"
           class="cls-2" />
        <path
           id="path64"
           transform="translate(-80.127 -20.88)"
           d="M416.544,177.057a2.425,2.425,0,0,1,2.338-2.548,1.917,1.917,0,0,1,1.459.649V172.39l1.13-.2v7.366h-1.119V178.9a1.958,1.958,0,0,1-1.55.709A2.394,2.394,0,0,1,416.544,177.057Zm3.8,1.05V176a1.551,1.551,0,0,0-1.189-.54,1.6,1.6,0,0,0,0,3.2A1.471,1.471,0,0,0,420.341,178.107Z"
           class="cls-2" />
        <path
           id="path66"
           transform="translate(-80.127 -20.88)"
           d="M422.644,177.057a2.471,2.471,0,0,1,2.438-2.588,2.406,2.406,0,0,1,2.369,2.588v.27h-3.7a1.533,1.533,0,0,0,1.5,1.4,1.674,1.674,0,0,0,1.19-.47l.739.669a2.9,2.9,0,0,1-1.979.73A2.541,2.541,0,0,1,422.644,177.057Zm3.738-.43a1.363,1.363,0,0,0-1.31-1.239,1.347,1.347,0,0,0-1.309,1.239Z"
           class="cls-2" />
      </g>
    </g>
    <g
       id="g92">
      <rect
         id="rect72"
         height="28.346"
         width="56.693"
         y="141.732"
         x="368.345"
         class="cls-3" />
      <g
         id="g90">
        <path
           id="path74"
           transform="translate(-80.127 -20.88)"
           d="M459.222,172.56h1.1l-4.007,9.085h-1.09Z"
           class="cls-2" />
        <path
           id="path76"
           transform="translate(-80.127 -20.88)"
           d="M461.163,177.057a2.426,2.426,0,0,1,2.339-2.548,1.92,1.92,0,0,1,1.459.649V172.39l1.129-.2v7.366h-1.119V178.9a1.953,1.953,0,0,1-1.549.709A2.4,2.4,0,0,1,461.163,177.057Zm3.8,1.05V176a1.554,1.554,0,0,0-1.189-.54,1.6,1.6,0,0,0,0,3.2A1.474,1.474,0,0,0,464.961,178.107Z"
           class="cls-2" />
        <path
           id="path78"
           transform="translate(-80.127 -20.88)"
           d="M467.263,177.057a2.471,2.471,0,0,1,2.438-2.588,2.407,2.407,0,0,1,2.37,2.588v.27h-3.7a1.534,1.534,0,0,0,1.5,1.4,1.673,1.673,0,0,0,1.19-.47l.74.669a2.9,2.9,0,0,1-1.98.73A2.541,2.541,0,0,1,467.263,177.057Zm3.738-.43a1.362,1.362,0,0,0-1.309-1.239,1.345,1.345,0,0,0-1.309,1.239Z"
           class="cls-2" />
        <path
           id="path80"
           transform="translate(-80.127 -20.88)"
           d="M472.633,174.549h1.23l1.4,3.638,1.39-3.638h1.178l-2.058,5.007h-1.1Z"
           class="cls-2" />
        <path
           id="path82"
           transform="translate(-80.127 -20.88)"
           d="M481.442,172.56h1.1l-4.008,9.085h-1.089Z"
           class="cls-2" />
        <path
           id="path84"
           transform="translate(-80.127 -20.88)"
           d="M483.163,178.976l.53-.749a2.915,2.915,0,0,0,1.609.569c.6,0,1.009-.279,1.009-.679,0-.31-.209-.47-.7-.57l-.88-.15c-.98-.18-1.45-.629-1.45-1.379,0-.94.77-1.549,1.94-1.549a3.6,3.6,0,0,1,1.969.6l-.53.749a2.719,2.719,0,0,0-1.509-.48c-.52,0-.86.22-.86.58,0,.32.18.459.7.55l.889.17c1,.18,1.48.64,1.48,1.389a1.838,1.838,0,0,1-2.049,1.629A3.349,3.349,0,0,1,483.163,178.976Z"
           class="cls-2" />
        <path
           id="path86"
           transform="translate(-80.127 -20.88)"
           d="M488.173,177.057a2.425,2.425,0,0,1,2.339-2.548,1.92,1.92,0,0,1,1.459.649V172.39l1.129-.2v7.366h-1.119V178.9a1.955,1.955,0,0,1-1.549.709A2.4,2.4,0,0,1,488.173,177.057Zm3.8,1.05V176a1.554,1.554,0,0,0-1.19-.54,1.6,1.6,0,0,0,0,3.2A1.474,1.474,0,0,0,491.971,178.107Z"
           class="cls-2" />
        <path
           id="path88"
           transform="translate(-80.127 -20.88)"
           d="M495.183,175.449H494.1v-.9h1.08v-.86a1.532,1.532,0,0,1,1.728-1.679,2.7,2.7,0,0,1,.75.09v.96a2.705,2.705,0,0,0-.6-.07c-.521,0-.75.229-.75.719v.84h1.349v.9h-1.349v4.107h-1.129Z"
           class="cls-2" />
      </g>
    </g>
    <g
       id="g98">
      <line
         id="line94"
         y2="118.768"
         x2="255.053"
         y1="141.732"
         x1="255.053"
         class="cls-4" />
      <polygon
         id="polygon96"
         points="258.793 119.862 255.053 113.386 251.313 119.862 258.793 119.862"
         class="cls-2" />
    </g>
    <g
       id="g104">
      <line
         id="line100"
         y2="118.768"
         x2="396.694"
         y1="141.732"
         x1="396.694"
         class="cls-4" />
      <polygon
         id="polygon102"
         points="400.433 119.862 396.694 113.386 392.954 119.862 400.433 119.862"
         class="cls-2" />
    </g>
    <g
       id="g110">
      <line
         id="line106"
         y2="62.075"
         x2="382.543"
         y1="85.039"
         x1="382.543"
         class="cls-4" />
      <polygon
         id="polygon108"
         points="386.282 63.169 382.543 56.693 378.803 63.169 386.282 63.169"
         class="cls-2" />
    </g>
    <g
       id="g116">
      <line
         id="line112"
         y2="62.075"
         x2="269.226"
         y1="85.039"
         x1="269.226"
         class="cls-4" />
      <polygon
         id="polygon114"
         points="272.965 63.169 269.226 56.693 265.486 63.169 272.965 63.169"
         class="cls-2" />
    </g>
    <g
       id="g122">
      <line
         id="line118"
         y2="118.768"
         x2="325.919"
         y1="141.732"
         x1="325.919"
         class="cls-4" />
      <polygon
         id="polygon120"
         points="329.659 119.862 325.919 113.386 322.179 119.862 329.659 119.862"
         class="cls-2" />
    </g>
    <g
       id="g160">
      <g
         id="g128">
        <rect
           id="rect124"
           height="55.692"
           width="84.04"
           y="0.5"
           x="227.205"
           class="cls-5" />
        <path
           id="path126"
           transform="translate(-80.127 -20.88)"
           d="M390.873,21.88V76.573h-83.04V21.88h83.04m1-1h-85.04V77.573h85.04V20.88Z"
           class="cls-6" />
      </g>
      <g
         id="g152">
        <path
           id="path130"
           transform="translate(-80.127 -20.88)"
           d="M319.563,56.975h5.027v1.019h-3.827v2H323.4v1h-2.638v2.979h-1.2Z"
           class="cls-2" />
        <path
           id="path132"
           transform="translate(-80.127 -20.88)"
           d="M325.623,57.254a.7.7,0,0,1,.7-.7.709.709,0,0,1,.7.7.7.7,0,0,1-.7.691A.694.694,0,0,1,325.623,57.254Zm.13,1.71h1.129v5.007h-1.129Z"
           class="cls-2" />
        <path
           id="path134"
           transform="translate(-80.127 -20.88)"
           d="M328.283,56.805l1.129-.2v7.366h-1.129Z"
           class="cls-2" />
        <path
           id="path136"
           transform="translate(-80.127 -20.88)"
           d="M330.573,61.472a2.472,2.472,0,0,1,2.439-2.588,2.406,2.406,0,0,1,2.368,2.588v.27h-3.7a1.533,1.533,0,0,0,1.5,1.4,1.67,1.67,0,0,0,1.189-.47l.74.669a2.9,2.9,0,0,1-1.979.73A2.542,2.542,0,0,1,330.573,61.472Zm3.738-.43A1.362,1.362,0,0,0,333,59.8a1.345,1.345,0,0,0-1.309,1.239Z"
           class="cls-2" />
        <path
           id="path138"
           transform="translate(-80.127 -20.88)"
           d="M338.333,63.391l.53-.749a2.915,2.915,0,0,0,1.609.569c.6,0,1.01-.279,1.01-.679,0-.31-.21-.47-.7-.57l-.879-.15c-.98-.18-1.45-.629-1.45-1.379,0-.94.77-1.549,1.939-1.549a3.6,3.6,0,0,1,1.97.6l-.531.749a2.719,2.719,0,0,0-1.509-.48c-.519,0-.859.22-.859.58,0,.32.18.459.7.55l.89.17c1,.18,1.479.64,1.479,1.389a1.838,1.838,0,0,1-2.049,1.629A3.349,3.349,0,0,1,338.333,63.391Z"
           class="cls-2" />
        <path
           id="path140"
           transform="translate(-80.127 -20.88)"
           d="M343.372,66.09v-.979a2.134,2.134,0,0,0,.441.04.809.809,0,0,0,.809-.571l.23-.559-1.889-5.057h1.249l1.279,3.708,1.39-3.708h1.239l-2.4,5.876a1.694,1.694,0,0,1-1.789,1.319A2.38,2.38,0,0,1,343.372,66.09Z"
           class="cls-2" />
        <path
           id="path142"
           transform="translate(-80.127 -20.88)"
           d="M348.493,63.391l.53-.749a2.912,2.912,0,0,0,1.609.569c.6,0,1.009-.279,1.009-.679,0-.31-.209-.47-.7-.57l-.88-.15c-.98-.18-1.449-.629-1.449-1.379,0-.94.769-1.549,1.939-1.549a3.6,3.6,0,0,1,1.969.6l-.53.749a2.719,2.719,0,0,0-1.509-.48c-.52,0-.86.22-.86.58,0,.32.18.459.7.55l.89.17c1,.18,1.48.64,1.48,1.389a1.838,1.838,0,0,1-2.049,1.629A3.349,3.349,0,0,1,348.493,63.391Z"
           class="cls-2" />
        <path
           id="path144"
           transform="translate(-80.127 -20.88)"
           d="M354.353,62.672V59.864h-1v-.9h1v-1.38l1.129-.239v1.619h1.389v.9h-1.389v2.558c0,.489.19.68.7.68a2.123,2.123,0,0,0,.68-.12v.949a3.56,3.56,0,0,1-.97.14C354.882,64.071,354.353,63.591,354.353,62.672Z"
           class="cls-2" />
        <path
           id="path146"
           transform="translate(-80.127 -20.88)"
           d="M357.643,61.472a2.471,2.471,0,0,1,2.438-2.588,2.406,2.406,0,0,1,2.368,2.588v.27h-3.7a1.533,1.533,0,0,0,1.5,1.4,1.674,1.674,0,0,0,1.19-.47l.739.669a2.894,2.894,0,0,1-1.979.73A2.541,2.541,0,0,1,357.643,61.472Zm3.737-.43a1.362,1.362,0,0,0-1.309-1.239,1.346,1.346,0,0,0-1.309,1.239Z"
           class="cls-2" />
        <path
           id="path148"
           transform="translate(-80.127 -20.88)"
           d="M363.6,58.964h1.129v.789a1.717,1.717,0,0,1,1.479-.869,1.559,1.559,0,0,1,1.48.959,1.865,1.865,0,0,1,1.658-.959,1.655,1.655,0,0,1,1.639,1.809v3.278h-1.129V60.943a1.014,1.014,0,0,0-1.009-1.15,1.124,1.124,0,0,0-1,.6,3,3,0,0,1,.02.3v3.278h-1.139V60.943a1.014,1.014,0,0,0-1.01-1.15,1.128,1.128,0,0,0-.989.58v3.6H363.6Z"
           class="cls-2" />
        <path
           id="path150"
           transform="translate(-80.127 -20.88)"
           d="M374.262,63.032l.73-.7a2.273,2.273,0,0,0,1.839.789c.909,0,1.53-.469,1.53-1.159a1.109,1.109,0,0,0-1.25-1.059h-.86v-.92h.77a1.014,1.014,0,0,0,1.119-1.039,1.213,1.213,0,0,0-1.329-1.11,2.153,2.153,0,0,0-1.74.83l-.739-.69a3.371,3.371,0,0,1,2.509-1.109,2.128,2.128,0,0,1,2.389,1.969,1.7,1.7,0,0,1-1.32,1.589,1.736,1.736,0,0,1,1.549,1.61c0,1.188-1.1,2.048-2.608,2.048A3.518,3.518,0,0,1,374.262,63.032Z"
           class="cls-2" />
      </g>
      <g
         id="g158">
        <path
           id="path154"
           transform="translate(-80.127 -20.88)"
           d="M361.728,32.193v17.75h-24.75V31.563a.623.623,0,0,0-.62-.62h3.21a.625.625,0,0,0-.63.62v15a.625.625,0,1,0,1.25,0V32.193h9.38a.63.63,0,0,0,.61-.5l.16-.75.36-1.71h6.31l.36,1.71.16.75a.63.63,0,0,0,.61.5Z"
           class="cls-5" />
        <path
           id="path156"
           transform="translate(-80.127 -20.88)"
           d="M362.978,31.563v19a.625.625,0,0,1-.62.63h-26a.627.627,0,0,1-.63-.63v-19a.625.625,0,0,1,1.25,0v18.38h24.75V32.193h-3.59a.63.63,0,0,1-.61-.5l-.16-.75-.36-1.71H350.7l-.36,1.71-.16.75a.63.63,0,0,1-.61.5h-9.38v14.37a.625.625,0,1,1-1.25,0v-15a.625.625,0,0,1,.63-.62h9.49l.53-2.47a.623.623,0,0,1,.61-.49h7.32a.631.631,0,0,1,.61.49l.52,2.47h3.71A.623.623,0,0,1,362.978,31.563Z"
           class="cls-7" />
      </g>
    </g>
    <g
       id="g198">
      <g
         id="g166">
        <rect
           id="rect162"
           height="55.692"
           width="84.04"
           y="0.5"
           x="340.523"
           class="cls-5" />
        <path
           id="path164"
           transform="translate(-80.127 -20.88)"
           d="M504.19,21.88V76.573H421.15V21.88h83.04m1-1H420.15V77.573h85.04V20.88Z"
           class="cls-8" />
      </g>
      <g
         id="g190">
        <path
           id="path168"
           transform="translate(-80.127 -20.88)"
           d="M432.659,56.975h5.028v1.019H433.86v2H436.5v1H433.86v2.979h-1.2Z"
           class="cls-2" />
        <path
           id="path170"
           transform="translate(-80.127 -20.88)"
           d="M438.72,57.254a.7.7,0,1,1,.7.691A.694.694,0,0,1,438.72,57.254Zm.13,1.71h1.129v5.007H438.85Z"
           class="cls-2" />
        <path
           id="path172"
           transform="translate(-80.127 -20.88)"
           d="M441.38,56.805l1.129-.2v7.366H441.38Z"
           class="cls-2" />
        <path
           id="path174"
           transform="translate(-80.127 -20.88)"
           d="M443.67,61.472a2.472,2.472,0,0,1,2.439-2.588,2.406,2.406,0,0,1,2.369,2.588v.27h-3.7a1.532,1.532,0,0,0,1.5,1.4,1.672,1.672,0,0,0,1.189-.47l.739.669a2.893,2.893,0,0,1-1.978.73A2.541,2.541,0,0,1,443.67,61.472Zm3.737-.43A1.361,1.361,0,0,0,446.1,59.8a1.346,1.346,0,0,0-1.31,1.239Z"
           class="cls-2" />
        <path
           id="path176"
           transform="translate(-80.127 -20.88)"
           d="M451.43,63.391l.53-.749a2.912,2.912,0,0,0,1.609.569c.6,0,1.009-.279,1.009-.679,0-.31-.21-.47-.7-.57l-.88-.15c-.979-.18-1.449-.629-1.449-1.379,0-.94.77-1.549,1.938-1.549a3.593,3.593,0,0,1,1.97.6l-.53.749a2.719,2.719,0,0,0-1.509-.48c-.519,0-.859.22-.859.58,0,.32.179.459.7.55l.89.17c1,.18,1.479.64,1.479,1.389a1.838,1.838,0,0,1-2.049,1.629A3.349,3.349,0,0,1,451.43,63.391Z"
           class="cls-2" />
        <path
           id="path178"
           transform="translate(-80.127 -20.88)"
           d="M456.469,66.09v-.979a2.13,2.13,0,0,0,.44.04.81.81,0,0,0,.81-.571l.229-.559-1.888-5.057h1.249l1.279,3.708,1.39-3.708h1.239l-2.4,5.876a1.694,1.694,0,0,1-1.789,1.319A2.374,2.374,0,0,1,456.469,66.09Z"
           class="cls-2" />
        <path
           id="path180"
           transform="translate(-80.127 -20.88)"
           d="M461.59,63.391l.529-.749a2.92,2.92,0,0,0,1.61.569c.6,0,1.009-.279,1.009-.679,0-.31-.209-.47-.7-.57l-.88-.15c-.979-.18-1.449-.629-1.449-1.379,0-.94.77-1.549,1.94-1.549a3.592,3.592,0,0,1,1.968.6l-.529.749a2.722,2.722,0,0,0-1.51-.48c-.519,0-.859.22-.859.58,0,.32.18.459.7.55l.889.17c1,.18,1.479.64,1.479,1.389a1.838,1.838,0,0,1-2.049,1.629A3.346,3.346,0,0,1,461.59,63.391Z"
           class="cls-2" />
        <path
           id="path182"
           transform="translate(-80.127 -20.88)"
           d="M467.449,62.672V59.864h-1v-.9h1v-1.38l1.129-.239v1.619h1.39v.9h-1.39v2.558c0,.489.191.68.7.68a2.122,2.122,0,0,0,.679-.12v.949a3.554,3.554,0,0,1-.97.14C467.979,64.071,467.449,63.591,467.449,62.672Z"
           class="cls-2" />
        <path
           id="path184"
           transform="translate(-80.127 -20.88)"
           d="M470.739,61.472a2.472,2.472,0,0,1,2.439-2.588,2.406,2.406,0,0,1,2.369,2.588v.27h-3.7a1.533,1.533,0,0,0,1.5,1.4,1.67,1.67,0,0,0,1.189-.47l.74.669a2.9,2.9,0,0,1-1.979.73A2.542,2.542,0,0,1,470.739,61.472Zm3.738-.43a1.362,1.362,0,0,0-1.309-1.239,1.345,1.345,0,0,0-1.309,1.239Z"
           class="cls-2" />
        <path
           id="path186"
           transform="translate(-80.127 -20.88)"
           d="M476.7,58.964h1.129v.789a1.717,1.717,0,0,1,1.48-.869,1.558,1.558,0,0,1,1.479.959,1.868,1.868,0,0,1,1.659-.959,1.656,1.656,0,0,1,1.639,1.809v3.278h-1.13V60.943a1.013,1.013,0,0,0-1.009-1.15,1.124,1.124,0,0,0-1,.6,2.732,2.732,0,0,1,.021.3v3.278h-1.14V60.943a1.013,1.013,0,0,0-1.009-1.15,1.128,1.128,0,0,0-.99.58v3.6H476.7Z"
           class="cls-2" />
        <path
           id="path188"
           transform="translate(-80.127 -20.88)"
           d="M491.177,62.242h-3.768v-.889l3.638-4.378h1.19V61.3h.929v.94h-.929v1.729h-1.06Zm0-.94V58.174L488.6,61.3Z"
           class="cls-2" />
      </g>
      <g
         id="g196">
        <path
           id="path192"
           transform="translate(-80.127 -20.88)"
           d="M475.045,32.193v17.75H450.3V31.563a.623.623,0,0,0-.62-.62h3.21a.625.625,0,0,0-.63.62v15a.625.625,0,1,0,1.25,0V32.193h9.38a.63.63,0,0,0,.61-.5l.16-.75.36-1.71h6.31l.36,1.71.16.75a.63.63,0,0,0,.61.5Z"
           class="cls-5" />
        <path
           id="path194"
           transform="translate(-80.127 -20.88)"
           d="M476.3,31.563v19a.625.625,0,0,1-.62.63h-26a.627.627,0,0,1-.63-.63v-19a.625.625,0,0,1,1.25,0v18.38h24.75V32.193h-3.59a.63.63,0,0,1-.61-.5l-.16-.75-.36-1.71h-6.31l-.36,1.71-.16.75a.63.63,0,0,1-.61.5h-9.38v14.37a.625.625,0,1,1-1.25,0v-15a.625.625,0,0,1,.63-.62h9.49l.53-2.47a.623.623,0,0,1,.61-.49h7.32a.631.631,0,0,1,.61.49l.52,2.47h3.71A.623.623,0,0,1,476.3,31.563Z"
           class="cls-7" />
      </g>
    </g>
  </g>
  <g
     data-name="Layer 2"
     id="Layer_2">
    <rect
       id="rect201"
       height="28.346"
       width="198.334"
       y="85.039"
       x="0.001"
       class="cls-1" />
    <g
       id="g213">
      <path
         id="path203"
         transform="translate(-80.127 -20.88)"
         d="M166.718,116.158h3.128a2.17,2.17,0,1,1,0,4.326h-1.929v2.67h-1.2Zm2.938,3.347a1.177,1.177,0,1,0,.01-2.338h-1.749v2.338Z"
         class="cls-2" />
      <path
         id="path205"
         transform="translate(-80.127 -20.88)"
         d="M173.138,120.654a2.515,2.515,0,1,1,2.518,2.589A2.494,2.494,0,0,1,173.138,120.654Zm3.918,0a1.42,1.42,0,1,0-1.4,1.63A1.487,1.487,0,0,0,177.056,120.654Z"
         class="cls-2" />
      <path
         id="path207"
         transform="translate(-80.127 -20.88)"
         d="M179.108,120.654a2.515,2.515,0,1,1,2.518,2.589A2.494,2.494,0,0,1,179.108,120.654Zm3.918,0a1.42,1.42,0,1,0-1.4,1.63A1.487,1.487,0,0,0,183.026,120.654Z"
         class="cls-2" />
      <path
         id="path209"
         transform="translate(-80.127 -20.88)"
         d="M185.308,115.988l1.129-.2v7.368h-1.129Z"
         class="cls-2" />
      <path
         id="path211"
         transform="translate(-80.127 -20.88)"
         d="M190.987,117.306l-1.24.529v-.968l1.64-.709h.689v7h-1.089Z"
         class="cls-2" />
    </g>
    <g
       id="g235">
      <rect
         id="rect215"
         height="28.346"
         width="56.693"
         y="141.732"
         class="cls-3" />
      <g
         id="g233">
        <path
           id="path217"
           transform="translate(-80.127 -20.88)"
           d="M90.182,172.56h1.1l-4.007,9.085h-1.09Z"
           class="cls-2" />
        <path
           id="path219"
           transform="translate(-80.127 -20.88)"
           d="M92.123,177.057a2.426,2.426,0,0,1,2.339-2.548,1.92,1.92,0,0,1,1.459.649V172.39l1.129-.2v7.366H95.931V178.9a1.956,1.956,0,0,1-1.549.709A2.4,2.4,0,0,1,92.123,177.057Zm3.8,1.05V176a1.554,1.554,0,0,0-1.189-.54,1.6,1.6,0,0,0,0,3.2A1.474,1.474,0,0,0,95.921,178.107Z"
           class="cls-2" />
        <path
           id="path221"
           transform="translate(-80.127 -20.88)"
           d="M98.223,177.057a2.471,2.471,0,0,1,2.438-2.588,2.406,2.406,0,0,1,2.369,2.588v.27h-3.7a1.534,1.534,0,0,0,1.5,1.4,1.673,1.673,0,0,0,1.19-.47l.74.669a2.9,2.9,0,0,1-1.98.73A2.541,2.541,0,0,1,98.223,177.057Zm3.738-.43a1.363,1.363,0,0,0-1.309-1.239,1.345,1.345,0,0,0-1.309,1.239Z"
           class="cls-2" />
        <path
           id="path223"
           transform="translate(-80.127 -20.88)"
           d="M103.593,174.549h1.229l1.4,3.638,1.39-3.638h1.178l-2.058,5.007h-1.1Z"
           class="cls-2" />
        <path
           id="path225"
           transform="translate(-80.127 -20.88)"
           d="M112.4,172.56h1.1l-4.008,9.085H108.4Z"
           class="cls-2" />
        <path
           id="path227"
           transform="translate(-80.127 -20.88)"
           d="M114.123,178.976l.53-.749a2.912,2.912,0,0,0,1.609.569c.6,0,1.009-.279,1.009-.679,0-.31-.209-.47-.7-.57l-.879-.15c-.98-.18-1.45-.629-1.45-1.379,0-.94.77-1.549,1.94-1.549a3.6,3.6,0,0,1,1.969.6l-.53.749a2.719,2.719,0,0,0-1.509-.48c-.52,0-.86.22-.86.58,0,.32.18.459.7.55l.89.17c1,.18,1.48.64,1.48,1.389a1.838,1.838,0,0,1-2.049,1.629A3.349,3.349,0,0,1,114.123,178.976Z"
           class="cls-2" />
        <path
           id="path229"
           transform="translate(-80.127 -20.88)"
           d="M119.133,177.057a2.425,2.425,0,0,1,2.339-2.548,1.92,1.92,0,0,1,1.459.649V172.39l1.129-.2v7.366h-1.119V178.9a1.956,1.956,0,0,1-1.549.709A2.4,2.4,0,0,1,119.133,177.057Zm3.8,1.05V176a1.554,1.554,0,0,0-1.19-.54,1.6,1.6,0,0,0,0,3.2A1.474,1.474,0,0,0,122.931,178.107Z"
           class="cls-2" />
        <path
           id="path231"
           transform="translate(-80.127 -20.88)"
           d="M125.2,178.117c0-.9.74-1.469,1.919-1.469a2.939,2.939,0,0,1,1.349.319v-.559c0-.66-.38-1-1.15-1a3.477,3.477,0,0,0-1.458.39l-.4-.819a4.948,4.948,0,0,1,2.078-.51c1.31,0,2.049.659,2.049,1.818v3.269h-1.119v-.52a2.021,2.021,0,0,1-1.489.61A1.6,1.6,0,0,1,125.2,178.117Zm2.089.729a1.748,1.748,0,0,0,1.179-.419v-.81a2.589,2.589,0,0,0-1.15-.24c-.649,0-1.059.27-1.059.72S126.662,178.846,127.292,178.846Z"
           class="cls-2" />
      </g>
    </g>
    <g
       id="g257">
      <rect
         id="rect237"
         height="28.346"
         width="56.693"
         y="141.732"
         x="70.822"
         class="cls-3" />
      <g
         id="g255">
        <path
           id="path239"
           transform="translate(-80.127 -20.88)"
           d="M160.7,172.56h1.1l-4.008,9.085H156.7Z"
           class="cls-2" />
        <path
           id="path241"
           transform="translate(-80.127 -20.88)"
           d="M162.64,177.057a2.425,2.425,0,0,1,2.339-2.548,1.92,1.92,0,0,1,1.459.649V172.39l1.129-.2v7.366h-1.12V178.9a1.951,1.951,0,0,1-1.548.709A2.4,2.4,0,0,1,162.64,177.057Zm3.8,1.05V176a1.554,1.554,0,0,0-1.19-.54,1.6,1.6,0,0,0,0,3.2A1.474,1.474,0,0,0,166.438,178.107Z"
           class="cls-2" />
        <path
           id="path243"
           transform="translate(-80.127 -20.88)"
           d="M168.739,177.057a2.472,2.472,0,0,1,2.439-2.588,2.406,2.406,0,0,1,2.369,2.588v.27h-3.7a1.533,1.533,0,0,0,1.5,1.4,1.668,1.668,0,0,0,1.189-.47l.741.669a2.9,2.9,0,0,1-1.98.73A2.542,2.542,0,0,1,168.739,177.057Zm3.739-.43a1.363,1.363,0,0,0-1.31-1.239,1.344,1.344,0,0,0-1.308,1.239Z"
           class="cls-2" />
        <path
           id="path245"
           transform="translate(-80.127 -20.88)"
           d="M174.11,174.549h1.229l1.4,3.638,1.39-3.638h1.179l-2.059,5.007h-1.1Z"
           class="cls-2" />
        <path
           id="path247"
           transform="translate(-80.127 -20.88)"
           d="M182.918,172.56h1.1l-4.008,9.085h-1.09Z"
           class="cls-2" />
        <path
           id="path249"
           transform="translate(-80.127 -20.88)"
           d="M184.64,178.976l.529-.749a2.918,2.918,0,0,0,1.61.569c.6,0,1.008-.279,1.008-.679,0-.31-.209-.47-.7-.57l-.88-.15c-.979-.18-1.449-.629-1.449-1.379,0-.94.77-1.549,1.939-1.549a3.592,3.592,0,0,1,1.969.6l-.529.749a2.722,2.722,0,0,0-1.51-.48c-.519,0-.859.22-.859.58,0,.32.179.459.7.55l.889.17c1,.18,1.479.64,1.479,1.389a1.838,1.838,0,0,1-2.049,1.629A3.346,3.346,0,0,1,184.64,178.976Z"
           class="cls-2" />
        <path
           id="path251"
           transform="translate(-80.127 -20.88)"
           d="M189.65,177.057a2.425,2.425,0,0,1,2.338-2.548,1.918,1.918,0,0,1,1.459.649V172.39l1.129-.2v7.366h-1.119V178.9a1.953,1.953,0,0,1-1.549.709A2.4,2.4,0,0,1,189.65,177.057Zm3.8,1.05V176a1.552,1.552,0,0,0-1.189-.54,1.6,1.6,0,0,0,0,3.2A1.474,1.474,0,0,0,193.447,178.107Z"
           class="cls-2" />
        <path
           id="path253"
           transform="translate(-80.127 -20.88)"
           d="M195.98,172.42l1.129-.19v2.988a1.949,1.949,0,0,1,1.539-.709,2.563,2.563,0,0,1-.07,5.1,1.9,1.9,0,0,1-1.489-.69v.64H195.98Zm3.817,4.637a1.514,1.514,0,0,0-1.489-1.6,1.485,1.485,0,0,0-1.2.56v2.089a1.545,1.545,0,0,0,1.2.559A1.511,1.511,0,0,0,199.8,177.057Z"
           class="cls-2" />
      </g>
    </g>
    <g
       id="g279">
      <rect
         id="rect259"
         height="28.346"
         width="56.693"
         y="141.732"
         x="141.641"
         class="cls-3" />
      <g
         id="g277">
        <path
           id="path261"
           transform="translate(-80.127 -20.88)"
           d="M231.957,172.56h1.1l-4.008,9.085h-1.09Z"
           class="cls-2" />
        <path
           id="path263"
           transform="translate(-80.127 -20.88)"
           d="M233.9,177.057a2.425,2.425,0,0,1,2.339-2.548,1.918,1.918,0,0,1,1.458.649V172.39l1.129-.2v7.366h-1.119V178.9a1.955,1.955,0,0,1-1.549.709A2.4,2.4,0,0,1,233.9,177.057Zm3.8,1.05V176a1.552,1.552,0,0,0-1.189-.54,1.6,1.6,0,0,0,0,3.2A1.474,1.474,0,0,0,237.7,178.107Z"
           class="cls-2" />
        <path
           id="path265"
           transform="translate(-80.127 -20.88)"
           d="M240,177.057a2.472,2.472,0,0,1,2.439-2.588,2.406,2.406,0,0,1,2.369,2.588v.27h-3.7a1.533,1.533,0,0,0,1.5,1.4,1.67,1.67,0,0,0,1.189-.47l.74.669a2.9,2.9,0,0,1-1.979.73A2.542,2.542,0,0,1,240,177.057Zm3.739-.43a1.363,1.363,0,0,0-1.31-1.239,1.345,1.345,0,0,0-1.309,1.239Z"
           class="cls-2" />
        <path
           id="path267"
           transform="translate(-80.127 -20.88)"
           d="M245.368,174.549h1.23l1.4,3.638,1.39-3.638h1.179l-2.059,5.007h-1.1Z"
           class="cls-2" />
        <path
           id="path269"
           transform="translate(-80.127 -20.88)"
           d="M254.177,172.56h1.1l-4.008,9.085h-1.09Z"
           class="cls-2" />
        <path
           id="path271"
           transform="translate(-80.127 -20.88)"
           d="M255.9,178.976l.529-.749a2.915,2.915,0,0,0,1.609.569c.6,0,1.009-.279,1.009-.679,0-.31-.209-.47-.7-.57l-.88-.15c-.979-.18-1.449-.629-1.449-1.379,0-.94.769-1.549,1.939-1.549a3.6,3.6,0,0,1,1.969.6l-.529.749a2.722,2.722,0,0,0-1.51-.48c-.52,0-.859.22-.859.58,0,.32.179.459.7.55l.889.17c1,.18,1.48.64,1.48,1.389a1.838,1.838,0,0,1-2.049,1.629A3.346,3.346,0,0,1,255.9,178.976Z"
           class="cls-2" />
        <path
           id="path273"
           transform="translate(-80.127 -20.88)"
           d="M260.908,177.057a2.426,2.426,0,0,1,2.339-2.548,1.918,1.918,0,0,1,1.459.649V172.39l1.129-.2v7.366h-1.119V178.9a1.955,1.955,0,0,1-1.549.709A2.4,2.4,0,0,1,260.908,177.057Zm3.8,1.05V176a1.552,1.552,0,0,0-1.189-.54,1.6,1.6,0,0,0,0,3.2A1.474,1.474,0,0,0,264.706,178.107Z"
           class="cls-2" />
        <path
           id="path275"
           transform="translate(-80.127 -20.88)"
           d="M267.008,177.057a2.526,2.526,0,0,1,2.529-2.588,2.7,2.7,0,0,1,2,.85l-.7.729a1.653,1.653,0,0,0-1.26-.59,1.609,1.609,0,0,0,0,3.2,1.677,1.677,0,0,0,1.26-.581l.7.72a2.7,2.7,0,0,1-2,.85A2.521,2.521,0,0,1,267.008,177.057Z"
           class="cls-2" />
      </g>
    </g>
    <g
       id="g285">
      <line
         id="line281"
         y2="118.768"
         x2="28.348"
         y1="141.732"
         x1="28.348"
         class="cls-4" />
      <polygon
         id="polygon283"
         points="32.088 119.862 28.348 113.386 24.609 119.862 32.088 119.862"
         class="cls-2" />
    </g>
    <g
       id="g291">
      <line
         id="line287"
         y2="118.768"
         x2="169.989"
         y1="141.732"
         x1="169.989"
         class="cls-4" />
      <polygon
         id="polygon289"
         points="173.729 119.862 169.989 113.386 166.249 119.862 173.729 119.862"
         class="cls-2" />
    </g>
    <g
       id="g297">
      <line
         id="line293"
         y2="62.075"
         x2="155.838"
         y1="85.039"
         x1="155.838"
         class="cls-4" />
      <polygon
         id="polygon295"
         points="159.578 63.169 155.838 56.693 152.098 63.169 159.578 63.169"
         class="cls-2" />
    </g>
    <g
       id="g303">
      <line
         id="line299"
         y2="62.075"
         x2="42.521"
         y1="85.039"
         x1="42.521"
         class="cls-4" />
      <polygon
         id="polygon301"
         points="46.261 63.169 42.521 56.693 38.781 63.169 46.261 63.169"
         class="cls-2" />
    </g>
    <g
       id="g309">
      <line
         id="line305"
         y2="118.768"
         x2="99.214"
         y1="141.732"
         x1="99.214"
         class="cls-4" />
      <polygon
         id="polygon307"
         points="102.954 119.862 99.214 113.386 95.475 119.862 102.954 119.862"
         class="cls-2" />
    </g>
    <g
       id="g347">
      <g
         id="g315">
        <rect
           id="rect311"
           height="55.692"
           width="84.04"
           y="0.5"
           x="0.501"
           class="cls-5" />
        <path
           id="path313"
           transform="translate(-80.127 -20.88)"
           d="M164.168,21.88V76.573H81.128V21.88h83.04m1-1H80.128V77.573h85.04V20.88Z"
           class="cls-9" />
      </g>
      <g
         id="g339">
        <path
           id="path317"
           transform="translate(-80.127 -20.88)"
           d="M94.183,56.975H99.21v1.019H95.383v2h2.638v1H95.383v2.979h-1.2Z"
           class="cls-2" />
        <path
           id="path319"
           transform="translate(-80.127 -20.88)"
           d="M100.243,57.254a.7.7,0,0,1,.7-.7.709.709,0,0,1,.7.7.7.7,0,0,1-.7.691A.694.694,0,0,1,100.243,57.254Zm.13,1.71H101.5v5.007h-1.129Z"
           class="cls-2" />
        <path
           id="path321"
           transform="translate(-80.127 -20.88)"
           d="M102.9,56.805l1.128-.2v7.366H102.9Z"
           class="cls-2" />
        <path
           id="path323"
           transform="translate(-80.127 -20.88)"
           d="M105.194,61.472a2.471,2.471,0,0,1,2.438-2.588A2.406,2.406,0,0,1,110,61.472v.27h-3.7a1.533,1.533,0,0,0,1.5,1.4,1.67,1.67,0,0,0,1.189-.47l.74.669a2.9,2.9,0,0,1-1.979.73A2.541,2.541,0,0,1,105.194,61.472Zm3.737-.43a1.362,1.362,0,0,0-1.309-1.239,1.346,1.346,0,0,0-1.309,1.239Z"
           class="cls-2" />
        <path
           id="path325"
           transform="translate(-80.127 -20.88)"
           d="M112.953,63.391l.531-.749a2.909,2.909,0,0,0,1.608.569c.6,0,1.01-.279,1.01-.679,0-.31-.21-.47-.7-.57l-.88-.15c-.98-.18-1.45-.629-1.45-1.379,0-.94.77-1.549,1.939-1.549a3.6,3.6,0,0,1,1.97.6l-.531.749a2.716,2.716,0,0,0-1.508-.48c-.52,0-.86.22-.86.58,0,.32.18.459.7.55l.89.17c1,.18,1.48.64,1.48,1.389a1.838,1.838,0,0,1-2.049,1.629A3.352,3.352,0,0,1,112.953,63.391Z"
           class="cls-2" />
        <path
           id="path327"
           transform="translate(-80.127 -20.88)"
           d="M117.992,66.09v-.979a2.134,2.134,0,0,0,.441.04.809.809,0,0,0,.809-.571l.23-.559-1.889-5.057h1.249l1.28,3.708,1.389-3.708h1.239l-2.4,5.876a1.694,1.694,0,0,1-1.789,1.319A2.386,2.386,0,0,1,117.992,66.09Z"
           class="cls-2" />
        <path
           id="path329"
           transform="translate(-80.127 -20.88)"
           d="M123.113,63.391l.53-.749a2.915,2.915,0,0,0,1.609.569c.6,0,1.009-.279,1.009-.679,0-.31-.209-.47-.7-.57l-.88-.15c-.98-.18-1.449-.629-1.449-1.379,0-.94.769-1.549,1.939-1.549a3.6,3.6,0,0,1,1.969.6l-.529.749a2.722,2.722,0,0,0-1.51-.48c-.52,0-.86.22-.86.58,0,.32.18.459.7.55l.888.17c1,.18,1.48.64,1.48,1.389a1.838,1.838,0,0,1-2.049,1.629A3.351,3.351,0,0,1,123.113,63.391Z"
           class="cls-2" />
        <path
           id="path331"
           transform="translate(-80.127 -20.88)"
           d="M128.973,62.672V59.864h-1v-.9h1v-1.38l1.129-.239v1.619h1.389v.9H130.1v2.558c0,.489.19.68.7.68a2.123,2.123,0,0,0,.68-.12v.949a3.554,3.554,0,0,1-.97.14C129.5,64.071,128.973,63.591,128.973,62.672Z"
           class="cls-2" />
        <path
           id="path333"
           transform="translate(-80.127 -20.88)"
           d="M132.263,61.472a2.471,2.471,0,0,1,2.438-2.588,2.407,2.407,0,0,1,2.37,2.588v.27h-3.7a1.533,1.533,0,0,0,1.5,1.4,1.674,1.674,0,0,0,1.19-.47l.739.669a2.894,2.894,0,0,1-1.979.73A2.541,2.541,0,0,1,132.263,61.472Zm3.737-.43a1.361,1.361,0,0,0-1.308-1.239,1.346,1.346,0,0,0-1.31,1.239Z"
           class="cls-2" />
        <path
           id="path335"
           transform="translate(-80.127 -20.88)"
           d="M138.223,58.964h1.129v.789a1.717,1.717,0,0,1,1.479-.869,1.559,1.559,0,0,1,1.48.959,1.865,1.865,0,0,1,1.658-.959,1.656,1.656,0,0,1,1.64,1.809v3.278h-1.13V60.943a1.014,1.014,0,0,0-1.009-1.15,1.124,1.124,0,0,0-1,.6,2.731,2.731,0,0,1,.02.3v3.278h-1.139V60.943a1.014,1.014,0,0,0-1.01-1.15,1.128,1.128,0,0,0-.989.58v3.6h-1.129Z"
           class="cls-2" />
        <path
           id="path337"
           transform="translate(-80.127 -20.88)"
           d="M150.142,58.124l-1.239.53v-.969l1.638-.71h.691v7h-1.09Z"
           class="cls-2" />
      </g>
      <g
         id="g345">
        <path
           id="path341"
           transform="translate(-80.127 -20.88)"
           d="M135.023,32.193v17.75h-24.75V31.563a.623.623,0,0,0-.62-.62h3.21a.625.625,0,0,0-.63.62v15a.625.625,0,1,0,1.25,0V32.193h9.38a.63.63,0,0,0,.61-.5l.16-.75.36-1.71h6.31l.36,1.71.16.75a.63.63,0,0,0,.61.5Z"
           class="cls-5" />
        <path
           id="path343"
           transform="translate(-80.127 -20.88)"
           d="M136.273,31.563v19a.625.625,0,0,1-.62.63h-26a.627.627,0,0,1-.63-.63v-19a.625.625,0,0,1,1.25,0v18.38h24.75V32.193h-3.59a.63.63,0,0,1-.61-.5l-.16-.75-.36-1.71h-6.31l-.36,1.71-.16.75a.63.63,0,0,1-.61.5h-9.38v14.37a.625.625,0,1,1-1.25,0v-15a.625.625,0,0,1,.63-.62h9.49l.53-2.47a.623.623,0,0,1,.61-.49h7.32a.631.631,0,0,1,.61.49l.52,2.47h3.71A.623.623,0,0,1,136.273,31.563Z"
           class="cls-7" />
      </g>
    </g>
    <g
       id="g385">
      <g
         id="g353">
        <rect
           id="rect349"
           height="55.692"
           width="84.039"
           y="0.5"
           x="113.819"
           class="cls-5" />
        <path
           id="path351"
           transform="translate(-80.127 -20.88)"
           d="M277.485,21.88V76.573h-83.04V21.88h83.04m1-1h-85.04V77.573h85.04V20.88Z"
           class="cls-10" />
      </g>
      <g
         id="g377">
        <path
           id="path355"
           transform="translate(-80.127 -20.88)"
           d="M206.361,56.975h5.027v1.019H207.56v2H210.2v1H207.56v2.979h-1.2Z"
           class="cls-2" />
        <path
           id="path357"
           transform="translate(-80.127 -20.88)"
           d="M212.42,57.254a.7.7,0,1,1,.7.691A.7.7,0,0,1,212.42,57.254Zm.13,1.71h1.13v5.007h-1.13Z"
           class="cls-2" />
        <path
           id="path359"
           transform="translate(-80.127 -20.88)"
           d="M215.08,56.805l1.13-.2v7.366h-1.13Z"
           class="cls-2" />
        <path
           id="path361"
           transform="translate(-80.127 -20.88)"
           d="M217.37,61.472a2.472,2.472,0,0,1,2.439-2.588,2.406,2.406,0,0,1,2.369,2.588v.27h-3.7a1.533,1.533,0,0,0,1.5,1.4,1.67,1.67,0,0,0,1.189-.47l.74.669a2.9,2.9,0,0,1-1.979.73A2.542,2.542,0,0,1,217.37,61.472Zm3.739-.43A1.363,1.363,0,0,0,219.8,59.8a1.345,1.345,0,0,0-1.309,1.239Z"
           class="cls-2" />
        <path
           id="path363"
           transform="translate(-80.127 -20.88)"
           d="M225.131,63.391l.529-.749a2.918,2.918,0,0,0,1.61.569c.6,0,1.009-.279,1.009-.679,0-.31-.209-.47-.7-.57l-.88-.15c-.979-.18-1.449-.629-1.449-1.379,0-.94.77-1.549,1.94-1.549a3.592,3.592,0,0,1,1.968.6l-.529.749a2.722,2.722,0,0,0-1.51-.48c-.519,0-.859.22-.859.58,0,.32.18.459.7.55l.89.17c1,.18,1.479.64,1.479,1.389a1.838,1.838,0,0,1-2.048,1.629A3.347,3.347,0,0,1,225.131,63.391Z"
           class="cls-2" />
        <path
           id="path365"
           transform="translate(-80.127 -20.88)"
           d="M230.17,66.09v-.979a2.124,2.124,0,0,0,.44.04.808.808,0,0,0,.809-.571l.231-.559-1.89-5.057h1.25l1.279,3.708,1.389-3.708h1.239l-2.4,5.876a1.693,1.693,0,0,1-1.789,1.319A2.372,2.372,0,0,1,230.17,66.09Z"
           class="cls-2" />
        <path
           id="path367"
           transform="translate(-80.127 -20.88)"
           d="M235.29,63.391l.531-.749a2.909,2.909,0,0,0,1.608.569c.6,0,1.01-.279,1.01-.679,0-.31-.21-.47-.7-.57l-.879-.15c-.98-.18-1.45-.629-1.45-1.379,0-.94.77-1.549,1.939-1.549a3.6,3.6,0,0,1,1.97.6l-.531.749a2.716,2.716,0,0,0-1.508-.48c-.52,0-.86.22-.86.58,0,.32.18.459.7.55l.89.17c1,.18,1.479.64,1.479,1.389a1.838,1.838,0,0,1-2.049,1.629A3.351,3.351,0,0,1,235.29,63.391Z"
           class="cls-2" />
        <path
           id="path369"
           transform="translate(-80.127 -20.88)"
           d="M241.15,62.672V59.864h-1v-.9h1v-1.38l1.13-.239v1.619h1.388v.9H242.28v2.558c0,.489.189.68.7.68a2.113,2.113,0,0,0,.679-.12v.949a3.553,3.553,0,0,1-.969.14C241.68,64.071,241.15,63.591,241.15,62.672Z"
           class="cls-2" />
        <path
           id="path371"
           transform="translate(-80.127 -20.88)"
           d="M244.44,61.472a2.471,2.471,0,0,1,2.438-2.588,2.406,2.406,0,0,1,2.369,2.588v.27h-3.7a1.533,1.533,0,0,0,1.5,1.4,1.673,1.673,0,0,0,1.19-.47l.74.669a2.9,2.9,0,0,1-1.98.73A2.541,2.541,0,0,1,244.44,61.472Zm3.738-.43a1.363,1.363,0,0,0-1.31-1.239,1.345,1.345,0,0,0-1.308,1.239Z"
           class="cls-2" />
        <path
           id="path373"
           transform="translate(-80.127 -20.88)"
           d="M250.4,58.964h1.13v.789a1.714,1.714,0,0,1,1.478-.869,1.559,1.559,0,0,1,1.48.959,1.866,1.866,0,0,1,1.659-.959,1.655,1.655,0,0,1,1.638,1.809v3.278h-1.129V60.943a1.013,1.013,0,0,0-1.009-1.15,1.124,1.124,0,0,0-1,.6c.009.1.019.2.019.3v3.278h-1.138V60.943a1.014,1.014,0,0,0-1.01-1.15,1.126,1.126,0,0,0-.989.58v3.6H250.4Z"
           class="cls-2" />
        <path
           id="path375"
           transform="translate(-80.127 -20.88)"
           d="M261.22,63.181l2.868-3a1.853,1.853,0,0,0,.68-1.339,1.136,1.136,0,0,0-1.27-1.019,2.508,2.508,0,0,0-1.819.849l-.619-.75a3.56,3.56,0,0,1,2.459-1.059c1.369,0,2.308.78,2.308,1.918a2.655,2.655,0,0,1-.989,1.959l-2.229,2.3,3.348-.009v.939H261.22Z"
           class="cls-2" />
      </g>
      <g
         id="g383">
        <path
           id="path379"
           transform="translate(-80.127 -20.88)"
           d="M248.34,32.193v17.75H223.59V31.563a.623.623,0,0,0-.62-.62h3.21a.625.625,0,0,0-.63.62v15a.625.625,0,1,0,1.25,0V32.193h9.38a.63.63,0,0,0,.61-.5l.16-.75.36-1.71h6.31l.36,1.71.16.75a.63.63,0,0,0,.61.5Z"
           class="cls-5" />
        <path
           id="path381"
           transform="translate(-80.127 -20.88)"
           d="M249.59,31.563v19a.625.625,0,0,1-.62.63h-26a.627.627,0,0,1-.63-.63v-19a.625.625,0,0,1,1.25,0v18.38h24.75V32.193h-3.59a.63.63,0,0,1-.61-.5l-.16-.75-.36-1.71h-6.31l-.36,1.71-.16.75a.63.63,0,0,1-.61.5H226.8v14.37a.625.625,0,1,1-1.25,0v-15a.625.625,0,0,1,.63-.62h9.49l.53-2.47a.623.623,0,0,1,.61-.49h7.32a.631.631,0,0,1,.61.49l.52,2.47h3.71A.623.623,0,0,1,249.59,31.563Z"
           class="cls-7" />
      </g>
    </g>
  </g>
</svg>
